<?xml version="1.0" encoding="utf-8"?>
<!-- Generator: Adobe Illustrator 26.3.1, SVG Export Plug-In . SVG Version: 6.00 Build 0)  -->
<svg version="1.1" id="Layer_1" xmlns="http://www.w3.org/2000/svg" xmlns:xlink="http://www.w3.org/1999/xlink" x="0px" y="0px"
	 viewBox="0 0 189.5 33.2" style="enable-background:new 0 0 189.5 33.2;" xml:space="preserve">
<style type="text/css">
	.st0{fill:#E91F87;}
	.st1{fill:#080950;}
</style>
<g id="Group_11373" transform="translate(0 0)">
	<path id="Path_10029" class="st0" d="M0,0l8.8,33.2h12.8L12.8,0H0z"/>
	<path id="Path_10030" class="st0" d="M17.7,0l8.8,33.2h12.8L30.5,0H17.7z"/>
	<path id="Path_10031" class="st1" d="M78.4,14.1c-0.8,0.8-2.2,0.8-3,0c-0.4-0.4-0.6-0.9-0.6-1.5s0.2-1.1,0.6-1.5
		c0.8-0.8,2.2-0.8,3,0l0,0c0.4,0.4,0.6,0.9,0.6,1.5C79,13.2,78.8,13.7,78.4,14.1 M75,15.7h3.7v11H75V15.7z"/>
	<path id="Path_10032" class="st1" d="M89,15.4c1.1,0,2.2,0.4,2.9,1.2c0.8,1,1.2,2.2,1.1,3.5v6.6h-3.7v-6.1c0-0.5-0.1-0.9-0.5-1.3
		c-0.3-0.3-0.8-0.5-1.2-0.4c-0.5,0-1,0.2-1.3,0.5c-0.3,0.4-0.5,1-0.5,1.5v5.9h-3.7v-11H86v1.1C86.7,15.8,87.8,15.3,89,15.4"/>
	<path id="Path_10033" class="st1" d="M102.8,14.3c-1.3-0.1-1.9,0.4-1.9,1.3h1.9v3.5h-1.9v7.5h-3.7v-7.5h-1.4v-3.5h1.4
		c-0.1-1.4,0.4-2.7,1.4-3.6c1.2-0.9,2.7-1.3,4.2-1.1V14.3z"/>
	<rect id="Rectangle_1671" x="105.3" y="10.6" class="st1" width="3.7" height="16.1"/>
	<path id="Path_10034" class="st1" d="M119.6,15.7h3.7v11h-3.7v-1.1c-0.7,1-1.9,1.5-3.1,1.4c-1.1,0-2.2-0.4-2.9-1.2
		c-0.8-1-1.2-2.2-1.1-3.5v-6.6h3.7v6.1c0,0.5,0.1,0.9,0.5,1.3c0.3,0.3,0.8,0.5,1.2,0.4c0.5,0,1-0.2,1.3-0.5c0.3-0.4,0.5-1,0.5-1.5
		L119.6,15.7z"/>
	<path id="Path_10035" class="st1" d="M130.1,22.5c0.4,0.9,1.4,1.5,2.5,1.3c0.7,0,1.5-0.3,2-0.8l2.7,1.9c-1.2,1.4-2.9,2.2-4.8,2.1
		c-1.7,0.1-3.3-0.5-4.5-1.6c-1.1-1.1-1.7-2.6-1.7-4.2c-0.1-3.1,2.4-5.8,5.5-5.9c0.1,0,0.2,0,0.3,0c1.5,0,3,0.6,4.1,1.7
		s1.7,2.6,1.6,4.2c0,0.5,0,0.9-0.2,1.4h-7.5V22.5z M130.1,20h4.2c-0.2-1-1.1-1.6-2.1-1.5C131.3,18.4,130.3,19,130.1,20"/>
	<path id="Path_10036" class="st1" d="M147.7,15.4c1.1,0,2.2,0.4,2.9,1.2c0.8,1,1.2,2.2,1.1,3.5v6.6H148v-6.1c0-0.5-0.1-0.9-0.5-1.3
		c-0.3-0.3-0.8-0.5-1.2-0.4c-0.5,0-1,0.2-1.3,0.5c-0.3,0.4-0.5,1-0.5,1.5v5.9H141v-11h3.7v1.1C145.4,15.8,146.5,15.3,147.7,15.4"/>
	<path id="Path_10037" class="st1" d="M160.6,27c-3.2,0.1-5.8-2.4-5.9-5.6c0-0.1,0-0.2,0-0.2c-0.1-3.2,2.5-5.8,5.6-5.8
		c0.1,0,0.2,0,0.2,0c1,0,2.1,0.3,3,0.8s1.6,1.2,2.1,2.1l-3.1,1.8c-0.4-0.7-1.1-1.1-1.9-1.1c-0.6,0-1.1,0.2-1.5,0.6
		c-0.8,0.9-0.8,2.3,0,3.2c0.4,0.4,1,0.6,1.5,0.6c0.8,0.1,1.6-0.4,1.9-1.1l3.1,1.8c-0.5,0.9-1.2,1.6-2.1,2.1
		C162.7,26.8,161.6,27,160.6,27"/>
	<path id="Path_10038" class="st1" d="M171.7,22.5c0.4,0.9,1.4,1.5,2.5,1.3c0.7,0,1.5-0.3,2-0.8l2.7,1.9c-1.2,1.4-2.9,2.2-4.8,2.1
		c-1.7,0.1-3.3-0.5-4.5-1.6c-1.1-1.1-1.7-2.6-1.7-4.2c-0.1-3.1,2.4-5.8,5.5-5.9c0.1,0,0.2,0,0.3,0c1.5,0,3,0.6,4.1,1.7
		s1.7,2.6,1.6,4.2c0,0.5,0,0.9-0.2,1.4h-7.5V22.5z M171.6,20h4.2c-0.2-1-1.1-1.6-2.1-1.5C172.8,18.4,171.8,19,171.6,20"/>
	<path id="Path_10039" class="st1" d="M186.1,17.7c0.2-0.7,0.6-1.3,1.2-1.7c0.6-0.4,1.3-0.6,2.1-0.6v4.1c-0.8-0.1-1.6,0-2.3,0.5
		s-1.1,1.3-1,2.2v4.6h-3.7v-11h3.7V17.7z"/>
	<path id="Path_10040" class="st1" d="M72.3,11.2h-3.8l-2.3,8.5L64,11.2h-4.4l-2.3,8.5L55,11.2h-3.8l4.1,15.5h3.9l2.5-9.4l2.5,9.4
		h3.9L72.3,11.2z"/>
	<path id="Path_10041" class="st1" d="M21.6,33.2H8.9L17.7,0h12.8L21.6,33.2z"/>
	<path id="Path_10042" class="st1" d="M39.3,33.2H26.5L35.3,0h12.8L39.3,33.2z"/>
</g>
</svg>
