<?xml version="1.0" encoding="utf-8"?>
<!-- Generator: Adobe Illustrator 16.0.0, SVG Export Plug-In . SVG Version: 6.00 Build 0)  -->
<!DOCTYPE svg [
	<!ENTITY ns_flows "http://ns.adobe.com/Flows/1.0/">
	<!ENTITY ns_extend "http://ns.adobe.com/Extensibility/1.0/">
	<!ENTITY ns_ai "http://ns.adobe.com/AdobeIllustrator/10.0/">
	<!ENTITY ns_graphs "http://ns.adobe.com/Graphs/1.0/">
]>
<svg version="1.2" baseProfile="tiny" id="Layer_1" xmlns:x="&ns_extend;" xmlns:i="&ns_ai;" xmlns:graph="&ns_graphs;"
	 xmlns="http://www.w3.org/2000/svg" xmlns:xlink="http://www.w3.org/1999/xlink" xmlns:a="http://ns.adobe.com/AdobeSVGViewerExtensions/3.0/"
	 x="0px" y="0px" width="630px" height="100px" viewBox="0 0 630 100" xml:space="preserve">
<g>
	<path fill="#FF8400" d="M15.456,0.931v28.252c4.759-5.501,10.409-8.327,17.1-8.327c3.421,0,6.394,0.595,9.219,1.933
		c2.677,1.19,4.759,2.825,6.245,4.908c1.339,1.933,2.38,4.163,2.825,6.542c0.446,2.379,0.744,6.096,0.744,11.151v32.713H36.868
		V48.364c0-5.798-0.298-9.516-0.892-11.151c-0.596-1.637-1.488-2.827-2.975-3.718c-1.487-0.893-3.122-1.338-5.354-1.338
		c-2.379,0-4.608,0.594-6.542,1.784c-1.934,1.189-3.271,2.974-4.164,5.353c-0.892,2.379-1.338,5.949-1.338,10.705v27.955H0.884
		V0.931H15.456z"/>
	<path fill="#FF8400" d="M98.725,60.11l14.721,2.529c-1.934,5.353-4.907,9.516-8.921,12.34c-4.016,2.825-9.22,4.165-15.316,4.165
		c-9.665,0-16.951-3.122-21.561-9.517c-3.717-5.057-5.502-11.45-5.502-19.181c0-9.22,2.379-16.506,7.286-21.71
		c4.758-5.205,11.003-7.881,18.29-7.881c8.326,0,14.869,2.676,19.628,8.178c4.757,5.501,7.137,13.829,6.839,25.129H77.313
		c0.148,4.312,1.339,7.732,3.569,10.261c2.229,2.379,5.056,3.717,8.475,3.717c2.38,0,4.313-0.595,5.8-1.934
		C96.643,64.868,97.981,62.938,98.725,60.11z M99.616,45.243c-0.148-4.313-1.188-7.584-3.271-9.815
		c-2.081-2.23-4.608-3.271-7.731-3.271c-3.271,0-5.947,1.19-8.029,3.568c-2.082,2.379-3.123,5.502-3.123,9.518H99.616z"/>
	<path fill="#FF8400" d="M125.936,22.045h13.828v8.179c1.785-2.825,4.164-5.056,7.286-6.84c2.975-1.784,6.395-2.676,10.111-2.676
		c6.542,0,12.045,2.527,16.505,7.583c4.461,5.057,6.84,12.193,6.84,21.264c0,9.367-2.229,16.505-6.84,21.709
		c-4.609,5.204-10.11,7.732-16.505,7.732c-3.122,0-5.947-0.595-8.327-1.783c-2.527-1.189-5.204-3.271-7.88-6.247v28.104h-14.721
		V22.045H125.936z M140.508,49.107c0,6.246,1.189,10.854,3.717,13.83c2.528,2.973,5.502,4.459,9.07,4.459
		c3.421,0,6.246-1.338,8.625-4.162c2.229-2.677,3.42-7.286,3.42-13.531c0-5.801-1.19-10.26-3.569-13.085s-5.204-4.313-8.772-4.313
		s-6.543,1.338-8.922,4.164C141.697,39.443,140.508,43.604,140.508,49.107z"/>
	<path fill="#FF8400" d="M186.899,61.896l14.87-2.231c0.595,2.825,1.933,5.058,3.866,6.543c1.933,1.487,4.609,2.231,8.029,2.231
		c3.866,0,6.691-0.744,8.624-2.082c1.338-1.042,1.934-2.23,1.934-4.015c0-1.189-0.298-2.082-1.041-2.825
		c-0.743-0.744-2.38-1.339-4.907-1.935c-11.896-2.675-19.479-5.053-22.602-7.135c-4.46-2.975-6.691-7.138-6.691-12.492
		c0-4.906,1.934-8.921,5.799-12.192c3.866-3.271,9.665-4.907,17.695-4.907c7.583,0,13.233,1.189,16.95,3.717
		c3.718,2.528,6.245,6.097,7.733,11.003l-13.978,2.528c-0.596-2.23-1.784-3.866-3.42-5.055c-1.636-1.19-4.015-1.785-7.137-1.785
		c-3.867,0-6.692,0.595-8.328,1.636c-1.189,0.744-1.636,1.784-1.636,2.974c0,1.041,0.446,1.933,1.486,2.676
		c1.339,1.041,5.948,2.379,13.83,4.163c7.88,1.784,13.382,4.015,16.505,6.544c3.122,2.676,4.608,6.245,4.608,11.002
		c0,5.055-2.081,9.516-6.394,13.234c-4.312,3.718-10.557,5.501-19.032,5.501c-7.583,0-13.68-1.488-17.992-4.609
		C191.063,71.411,188.238,67.248,186.899,61.896z"/>
	<path fill="#FF8400" d="M251.879,14.611V0.931H266.6v13.68H251.879z M251.879,77.953V22.045H266.6v55.76h-14.721V77.953z"/>
	<path fill="#FF8400" d="M281.172,77.953V0.931h14.721v27.806c4.609-5.205,9.962-7.732,16.208-7.732
		c6.838,0,12.341,2.528,16.802,7.435c4.463,4.908,6.691,12.044,6.691,21.264c0,9.516-2.229,16.802-6.84,22.006
		c-4.46,5.205-10.111,7.732-16.505,7.732c-3.122,0-6.395-0.744-9.367-2.38c-3.123-1.635-5.8-4.015-8.029-7.136v8.177h-13.681V77.953
		z M295.744,48.811c0,5.798,0.893,10.11,2.677,12.787c2.527,3.866,5.947,5.948,10.26,5.948c3.271,0,6.097-1.339,8.327-4.165
		c2.229-2.823,3.419-7.136,3.419-13.084c0-6.394-1.19-11.002-3.419-13.828c-2.379-2.825-5.205-4.164-8.923-4.164
		c-3.568,0-6.542,1.338-8.772,4.164C296.934,38.996,295.744,43.161,295.744,48.811z"/>
	<path fill="#FF8400" d="M384.217,77.953v-8.325c-2.081,2.973-4.759,5.352-8.03,6.988c-3.271,1.784-6.838,2.528-10.408,2.528
		c-3.717,0-7.136-0.894-10.109-2.528c-2.976-1.637-5.205-4.016-6.395-6.988c-1.339-2.974-1.934-7.139-1.934-12.344V22.045h14.721
		V47.77c0,7.881,0.298,12.639,0.742,14.422c0.595,1.785,1.488,3.123,2.975,4.165c1.487,1.04,3.272,1.487,5.502,1.487
		c2.527,0,4.759-0.744,6.84-2.083c1.934-1.337,3.421-3.121,4.163-5.203c0.745-2.083,1.043-7.138,1.043-15.017V22.045h14.719v55.76
		h-13.828V77.953z"/>
	<path fill="#FF8400" d="M427.338,77.953h-14.721V22.045h13.681v7.882c2.378-3.718,4.459-6.246,6.394-7.435
		c1.933-1.189,4.015-1.784,6.395-1.784c3.419,0,6.541,0.891,9.665,2.825l-4.611,12.937c-2.527-1.636-4.756-2.379-6.988-2.379
		c-2.081,0-3.866,0.595-5.204,1.636c-1.488,1.19-2.527,3.123-3.419,6.246c-0.894,2.974-1.19,9.218-1.19,18.735V77.953z"/>
	<path fill="#FF8400" d="M465.998,39.145l-13.383-2.379c1.488-5.353,4.165-9.368,7.732-12.044c3.719-2.528,9.07-3.866,16.356-3.866
		c6.543,0,11.45,0.744,14.721,2.379c3.271,1.487,5.502,3.569,6.84,5.948c1.337,2.378,1.933,6.84,1.933,13.234l-0.146,17.247
		c0,4.907,0.298,8.477,0.741,10.856c0.448,2.378,1.339,4.757,2.678,7.433h-14.573c-0.444-1.039-0.892-2.38-1.487-4.311
		c-0.298-0.893-0.444-1.487-0.594-1.785c-2.527,2.379-5.205,4.312-8.029,5.502c-2.824,1.189-5.948,1.785-9.219,1.785
		c-5.798,0-10.26-1.487-13.532-4.61c-3.271-3.123-4.906-6.988-4.906-11.747c0-3.123,0.745-5.947,2.23-8.476
		c1.487-2.527,3.568-4.313,6.395-5.65c2.675-1.338,6.691-2.527,11.746-3.419c6.84-1.34,11.747-2.529,14.274-3.569v-1.488
		c0-2.825-0.743-4.906-2.082-6.096c-1.337-1.189-4.014-1.784-7.88-1.784c-2.677,0-4.61,0.446-6.097,1.487
		C468.081,34.684,466.892,36.469,465.998,39.145z M485.774,51.041c-1.933,0.596-4.906,1.337-8.919,2.229
		c-4.166,0.893-6.843,1.785-8.033,2.529c-1.931,1.338-2.824,3.121-2.824,5.204c0,2.08,0.744,3.864,2.38,5.353
		c1.487,1.487,3.568,2.229,5.946,2.229c2.678,0,5.206-0.891,7.584-2.675c1.784-1.339,2.975-2.973,3.57-4.906
		c0.445-1.19,0.594-3.72,0.594-7.138v-2.825H485.774z"/>
	<path fill="#FF8400" d="M566.069,77.953h-13.68v-8.178c-2.231,3.123-4.906,5.502-8.03,7.139c-3.121,1.486-6.243,2.379-9.367,2.379
		c-6.394,0-11.895-2.528-16.506-7.732c-4.608-5.204-6.839-12.342-6.839-21.562c0-9.515,2.23-16.652,6.692-21.56
		c4.46-4.907,10.11-7.435,16.802-7.435c6.245,0,11.598,2.528,16.206,7.732V0.931h14.722V77.953L566.069,77.953z M526.665,48.811
		c0,5.947,0.894,10.259,2.529,12.935c2.377,3.866,5.65,5.8,9.961,5.8c3.42,0,6.247-1.487,8.626-4.312
		c2.377-2.826,3.566-7.14,3.566-12.938c0-6.394-1.189-11.002-3.419-13.828c-2.38-2.825-5.204-4.164-8.921-4.164
		c-3.569,0-6.394,1.338-8.773,4.164C527.854,39.145,526.665,43.309,526.665,48.811z"/>
	<path fill="#FF8400" d="M591.645,39.145l-13.382-2.379c1.486-5.353,4.162-9.368,7.731-12.044c3.717-2.528,9.071-3.866,16.357-3.866
		c6.542,0,11.448,0.744,14.721,2.379c3.271,1.487,5.502,3.569,6.839,5.948c1.339,2.378,1.934,6.84,1.934,13.234l-0.149,17.247
		c0,4.907,0.297,8.477,0.743,10.856c0.446,2.378,1.34,4.757,2.678,7.433h-14.572c-0.446-1.039-0.893-2.38-1.486-4.311
		c-0.297-0.893-0.447-1.487-0.595-1.785c-2.527,2.379-5.205,4.312-8.031,5.502c-2.824,1.189-5.946,1.785-9.219,1.785
		c-5.798,0-10.259-1.487-13.529-4.61c-3.272-3.123-4.909-6.988-4.909-11.747c0-3.123,0.744-5.947,2.231-8.476
		c1.488-2.527,3.568-4.313,6.395-5.65c2.678-1.338,6.69-2.527,11.746-3.419c6.841-1.34,11.747-2.529,14.273-3.569v-1.488
		c0-2.825-0.742-4.906-2.08-6.096c-1.338-1.189-4.016-1.784-7.882-1.784c-2.675,0-4.608,0.446-6.097,1.487
		C593.876,34.833,592.536,36.469,591.645,39.145z M611.273,51.041c-1.934,0.596-4.906,1.337-8.922,2.229s-6.841,1.785-8.03,2.529
		c-1.933,1.338-2.824,3.121-2.824,5.204c0,2.08,0.741,3.864,2.379,5.353c1.485,1.487,3.568,2.229,5.946,2.229
		c2.677,0,5.204-0.891,7.584-2.675c1.785-1.339,2.975-2.973,3.569-4.906c0.444-1.19,0.596-3.72,0.596-7.138v-2.825H611.273z"/>
</g>
</svg>
