<svg xmlns="http://www.w3.org/2000/svg" viewBox="0 0 32 32"><path fill="#112B49" d="M20.028 22.315h3.454L17.97 8.006h-3.82L8.637 22.315h3.454l.9-2.424h5.21l-.943-2.682h-3.43l2.231-6.157 3.97 11.263zm11.39-10.594a.83.83 0 1 0-1.602.444A14.33 14.33 0 0 1 30.338 16c0 7.906-6.432 14.338-14.338 14.338-7.906 0-14.338-6.432-14.338-14.338C1.662 8.094 8.094 1.662 16 1.662c3.35 0 6.59 1.19 9.147 3.307a2 2 0 1 0 1.235-1.133A16.044 16.044 0 0 0 16 0C7.178 0 0 7.178 0 16s7.178 16 16 16 16-7.178 16-16c0-1.447-.196-2.886-.583-4.279z"/></svg>