<svg xmlns="http://www.w3.org/2000/svg" viewBox="0 0 32 32"><g fill="none" fill-rule="evenodd"><path fill="#06989A" fill-rule="nonzero" d="M0 0h32v32H0z"/><path fill="#FFF" d="M11.926 28.325c-3.674 0-5.95-2.54-5.95-6.67 0-4.123 2.267-6.663 5.95-6.663 3.006 0 5.308 1.995 5.502 4.755h-2.584c-.255-1.459-1.406-2.417-2.918-2.417-1.995 0-3.235 1.652-3.235 4.324 0 2.672 1.24 4.333 3.244 4.333 1.52 0 2.663-.896 2.918-2.294h2.584c-.22 2.743-2.453 4.632-5.511 4.632zm10.108-10.863v3.902h2.33c1.335 0 2.117-.72 2.117-1.942 0-1.204-.826-1.96-2.144-1.96h-2.303zm0 5.941V28H19.38V15.317h5.326c2.786 0 4.5 1.547 4.5 4.07 0 1.617-.844 3.023-2.303 3.603L29.575 28H26.57l-2.364-4.597h-2.17z"/></g></svg>