<svg xmlns="http://www.w3.org/2000/svg" viewBox="0 0 32 32"><g fill="none" fill-rule="evenodd"><path fill="#FFF" d="M31.946 16.786a6.31 6.31 0 0 0-4.159-5.952c.108-.57.162-1.14.162-1.722C27.95 4.108 23.9.04 18.93.04a8.996 8.996 0 0 0-7.318 3.756 4.762 4.762 0 0 0-2.93-1.004c-2.647 0-4.793 2.156-4.793 4.814 0 .583.108 1.152.297 1.681A6.37 6.37 0 0 0 0 15.254a6.326 6.326 0 0 0 4.172 5.966 9.079 9.079 0 0 0-.162 1.722c0 4.99 4.037 9.044 9.006 9.044a8.966 8.966 0 0 0 7.305-3.77 4.706 4.706 0 0 0 2.93 1.031c2.646 0 4.793-2.155 4.793-4.813a5 5 0 0 0-.297-1.681c2.484-.895 4.199-3.295 4.199-5.967"/><path fill="#FED10A" d="M12.557 13.803l6.994 3.2 7.048-6.21a7.448 7.448 0 0 0 .149-1.56c0-4.365-3.538-7.918-7.886-7.918a7.851 7.851 0 0 0-6.494 3.444l-1.175 6.116 1.364 2.928z"/><path fill="#24BBB1" d="M5.32 21.234a7.708 7.708 0 0 0-.149 1.586c0 4.38 3.551 7.933 7.913 7.933a7.897 7.897 0 0 0 6.535-3.472l1.16-6.088-1.552-2.983-7.021-3.213-6.886 6.237z"/><path fill="#EF5098" d="M5.28 9.085l4.793 1.139 1.053-5.465a3.75 3.75 0 0 0-2.296-.773 3.791 3.791 0 0 0-3.78 3.797c0 .448.08.895.23 1.302"/><path fill="#17A8E0" d="M4.86 10.237c-2.133.705-3.631 2.766-3.631 5.03a5.32 5.32 0 0 0 3.402 4.964l6.724-6.102-1.228-2.644-5.266-1.248z"/><path fill="#93C83E" d="M20.834 27.281a3.783 3.783 0 0 0 2.282.787 3.79 3.79 0 0 0 3.78-3.797c0-.46-.08-.908-.23-1.315l-4.78-1.125-1.052 5.45z"/><path fill="#0779A1" d="M21.806 20.57l5.266 1.233c2.147-.705 3.632-2.766 3.632-5.044A5.302 5.302 0 0 0 27.3 11.81l-6.886 6.061 1.39 2.698z"/></g></svg>