<svg xmlns="http://www.w3.org/2000/svg" viewBox="0 0 21 32"><g fill="none" fill-rule="evenodd"><path fill="#8D7CA3" d="M17.122 13.605c-1.505-1.53-2.969-3.14-4.177-4.906C11.271 6.235 11.123 3.309 11.02 0 9.992.87 9.104 1.406 8.495 2.168 6.858 4.207 5.143 6.224 3.818 8.46 1.122 13.014-.562 17.882.344 23.317c.78 4.692 4.212 8 8.905 8.593 4.319.54 8.611-1.911 10.27-6.058 1.825-4.55 1.122-8.664-2.397-12.247z"/><path fill="#71558E" d="M16.799 14.738c-1.386-1.396-2.742-2.864-3.855-4.477-1.548-2.243-1.7-4.933-1.811-7.962-.938.798-1.749 1.298-2.305 2-1.488 1.878-3.05 3.735-4.252 5.794C2.129 14.279.609 18.75 1.47 23.729c.744 4.292 3.903 7.317 8.207 7.83a8.995 8.995 0 0 0 9.386-5.608c1.647-4.18.98-7.947-2.264-11.213z"/><path fill="#54376B" d="M8.609 2.67c.517 2.87 1.027 5.41 2.829 7.337 1.294 1.384 2.805 2.597 4.335 3.735 3.58 2.666 4.733 6.163 3.707 10.373-.937 3.836-4.43 6.537-8.325 6.634-4.235.098-7.7-2.341-8.999-6.332-1.505-4.624-.64-9.093 1.163-13.418.883-2.13 2.142-4.114 3.33-6.107.443-.745 1.163-1.333 1.96-2.223z"/><path fill="#816F94" d="M5.025 26.791c2.01.098 3.982.311 5.874.98.227.082.48.171.64.336.183.189.383.473.367.7-.01.153-.378.386-.599.402-2.454.168-4.568-.588-6.282-2.418z"/></g></svg>