<svg xmlns="http://www.w3.org/2000/svg" viewBox="0 0 32 12"><g fill="#2DBCAF"><path d="M2.504 3.708c-.061 0-.077-.031-.046-.077l.325-.416c.03-.046.108-.077.17-.077H8.47c.062 0 .078.047.047.093l-.263.4c-.03.046-.108.092-.155.092l-5.596-.015zM.17 5.123c-.062 0-.077-.03-.046-.077l.324-.415c.031-.046.109-.077.17-.077h7.05c.061 0 .092.046.077.092l-.124.37c-.015.06-.077.092-.139.092L.17 5.123zm3.741 1.415c-.062 0-.077-.046-.046-.092l.216-.384c.031-.047.093-.093.155-.093h3.092c.061 0 .092.046.092.108l-.03.37c0 .06-.062.107-.109.107l-3.37-.016zm16.046-3.107c-.973.246-1.638.43-2.597.677-.231.061-.247.077-.448-.154-.232-.262-.402-.43-.726-.585-.974-.477-1.917-.338-2.799.231-1.05.677-1.592 1.677-1.576 2.923.015 1.23.865 2.246 2.087 2.415 1.05.139 1.932-.23 2.628-1.015.139-.17.262-.354.417-.57h-2.984c-.324 0-.402-.2-.293-.46.2-.478.572-1.278.788-1.678a.417.417 0 0 1 .387-.246h5.627c-.031.416-.031.831-.093 1.246a6.544 6.544 0 0 1-1.268 3.016c-1.113 1.461-2.566 2.369-4.406 2.615-1.515.2-2.921-.092-4.158-1.015-1.144-.862-1.793-2-1.963-3.416-.201-1.677.293-3.184 1.314-4.507C10.99 1.477 12.444.569 14.222.246 15.675-.015 17.067.154 18.32 1c.82.538 1.407 1.277 1.793 2.17.093.138.031.215-.155.26z"/><path d="M25.074 11.938c-1.406-.03-2.69-.43-3.772-1.353-.912-.785-1.484-1.785-1.67-2.97-.277-1.738.202-3.277 1.253-4.646C22.014 1.492 23.374.723 25.214.4c1.576-.277 3.06-.123 4.405.785 1.222.83 1.98 1.953 2.18 3.43.263 2.077-.34 3.77-1.778 5.216-1.02 1.03-2.272 1.677-3.71 1.969-.417.077-.835.092-1.237.138zm3.68-6.215c-.016-.2-.016-.354-.047-.508-.278-1.523-1.685-2.384-3.153-2.046-1.438.323-2.366 1.231-2.706 2.677-.278 1.2.31 2.416 1.423 2.908.85.37 1.7.323 2.52-.092 1.22-.631 1.885-1.616 1.963-2.939z"/></g></svg>