<svg xmlns="http://www.w3.org/2000/svg" viewBox="0 0 32 32"><g fill="none" fill-rule="evenodd"><path fill="#F89F1B" fill-rule="nonzero" d="M0 0h32v32H0z"/><path fill="#FFF" d="M7.057 4.077c1.314-.01 2.629 0 3.943-.019.257 0 .39.058.352.348-.019.126 0 .262 0 .388 0 7.51-.01 15.019.01 22.519 0 .503-.143.61-.6.6-1.238-.039-2.476-.02-3.705-.03V4.078zm19.933-.009c-1.076 1.529-2.095 2.97-3.104 4.403-1.648 2.332-3.286 4.664-4.943 6.977-.276.387-.286.668 0 1.065 2.543 3.57 5.076 7.161 7.61 10.752l.37.551c-.113.145-.247.087-.361.087-1.495.01-2.981-.01-4.476.01-.296 0-.457-.107-.62-.339a2999.685 2999.685 0 0 0-7.876-11.332c-.171-.242-.142-.397.02-.63 2.628-3.735 5.238-7.48 7.866-11.215.114-.165.21-.339.467-.339 1.647.02 3.295.01 5.047.01z"/></g></svg>