<svg xmlns="http://www.w3.org/2000/svg" viewBox="0 0 29 34"><g fill="none" fill-rule="evenodd" transform="translate(0 1)"><path fill="#008CC1" d="M26.818 14.502c0 7.522-6.003 13.618-13.41 13.618C6.004 28.12 0 22.024 0 14.502 0 6.981 6.003.884 13.409.884c7.406-.006 13.409 6.097 13.409 13.618"/><path fill="#FFF" fill-rule="nonzero" d="M5.944 10.035c0 .6-.48 1.09-1.072 1.09a1.081 1.081 0 0 1-1.072-1.09c0-.6.481-1.088 1.072-1.088.598 0 1.072.488 1.072 1.088m.182 2.99c0 .6-.48 1.088-1.072 1.088a1.081 1.081 0 0 1-1.072-1.089c0-.6.481-1.088 1.072-1.088.591 0 1.072.481 1.072 1.088m.656 3.167c0 .6-.48 1.089-1.072 1.089a1.081 1.081 0 0 1-1.071-1.089c0-.6.48-1.088 1.071-1.088.592-.007 1.072.481 1.072 1.088m1.469 2.837c0 .6-.481 1.09-1.072 1.09a1.081 1.081 0 0 1-1.072-1.09c0-.6.48-1.088 1.072-1.088.59-.007 1.072.481 1.072 1.088m11.479 3.966c0 .6-.48 1.088-1.072 1.088a1.081 1.081 0 0 1-1.072-1.088c0-.6.48-1.089 1.072-1.089.591 0 1.072.488 1.072 1.089m1.949-2.342c0 .6-.48 1.088-1.072 1.088a1.081 1.081 0 0 1-1.072-1.088c0-.6.48-1.09 1.072-1.09.591 0 1.072.49 1.072 1.09M16.027 4.09c0 .6-.48 1.088-1.072 1.088a1.081 1.081 0 0 1-1.072-1.088c0-.6.48-1.089 1.072-1.089.591 0 1.072.488 1.072 1.089m-2.82-1.003c0 .6-.48 1.088-1.072 1.088a1.081 1.081 0 0 1-1.071-1.088c0-.6.48-1.089 1.071-1.089a1.08 1.08 0 0 1 1.072 1.089"/><ellipse cx="20.808" cy="11.256" fill="#66B245" stroke="#FFF" stroke-width=".5" rx="7.146" ry="7.258"/><ellipse cx="11.018" cy="26.055" fill="#66B245" stroke="#FFF" stroke-width=".5" rx="5.847" ry="5.938"/><ellipse cx="6.204" cy="3.959" fill="#66B245" stroke="#FFF" stroke-width=".5" rx="3.898" ry="3.959"/></g></svg>