<svg xmlns="http://www.w3.org/2000/svg" viewBox="0 0 32 32"><g fill="none" fill-rule="evenodd"><path fill="#2D8474" d="M22.098 19.47c.118 1.246.218 2.425.336 3.806.301-.287.485-.438.636-.607 4.775-5.12 2.513-13.675-4.172-15.764-.921-.286-.904-.286-.787-1.28.184-1.516.352-3.048.536-4.564.017-.185.084-.354.15-.606 5.831 1.297 9.97 4.598 12.047 10.19 2.06 5.574 1.039 10.778-2.563 15.68.988-.102 1.81-.17 2.714-.253v4.008c-3.803.337-7.607.674-11.51 1.027-.1-.707-.184-1.38-.268-2.054-.352-2.78-.704-5.541-1.039-8.32-.017-.169.117-.506.218-.54 1.206-.269 2.412-.488 3.702-.724z"/><path fill="#7A2B27" d="M17.474.202c-.15 1.297-.284 2.493-.435 3.705-.084.69-.201 1.381-.252 2.072-.033.488-.284.522-.703.539-3.569.05-6.383 1.566-8.26 4.648-3.367 5.541-.369 12.767 5.914 14.316.486.118.654.27.587.775-.235 1.785-.436 3.587-.67 5.39-.017.084-.05.15-.118.32-5.445-1.045-9.566-3.925-11.878-9.011C-1.072 16.96-.37 11.166 3.753 6.013 7.22 1.684 11.895-.117 17.474.203z"/></g></svg>