<svg xmlns="http://www.w3.org/2000/svg" viewBox="0 0 32 32"><g fill="none" fill-rule="evenodd"><path fill="#FEFEFE" d="M2.929 31.952c-.904 0-1.807-.007-2.711.005-.182 0-.218-.036-.218-.218.006-6.848.008-13.696.005-20.545C.005 7.535.004 3.876 0 .217 0 .036.036 0 .218 0 10.725.005 21.233.005 31.74 0c.181 0 .22.035.217.217-.012.886-.005 1.772-.005 2.658a.062.062 0 0 1-.085-.027c-.092-.307-.094-.628-.156-.94-.173-.878-.69-1.411-1.565-1.602a4.614 4.614 0 0 0-.84-.112c-3.276-.111-6.553-.04-9.83-.049C14.35.132 9.222.133 4.094.147A16.115 16.115 0 0 0 2.16.254C1.037.389.39 1.037.25 2.16a15.575 15.575 0 0 0-.103 1.88c-.01 7.998-.01 15.996 0 23.993 0 .634.01 1.276.114 1.906.187 1.112.806 1.693 1.933 1.821.176.02.35.053.528.059.063 0 .124.016.179.046a.062.062 0 0 1 .027.086z"/><path fill="#FDFDFE" d="M31.952 29.028c0 .921-.003 1.843.004 2.764 0 .133-.03.164-.163.163-.833-.007-1.666-.003-2.499-.003a.053.053 0 0 1 .011-.075c.249-.107.52-.097.779-.15.946-.192 1.454-.7 1.644-1.642.07-.347.07-.702.15-1.046a.053.053 0 0 1 .074-.011z"/><path fill="#92A6C4" d="M31.952 29.028l-.021.01h-.023c-.087-.069-.086-.17-.093-.266-.006-.088-.003-.177-.003-.265V3.403c0-.18-.053-.375.092-.532a.092.092 0 0 1 .048.004v26.153z"/><path fill="#92A6C5" d="M2.929 31.952a.258.258 0 0 0-.008-.046c.07-.085.17-.085.266-.091.096-.006.195-.004.293-.004h24.567c.175 0 .355-.027.524.05a.068.068 0 0 1 .032.09H2.93z"/><path fill="#C2CDDE" d="M28.603 31.952c0-.015 0-.03.005-.046a.648.648 0 0 1 .69-.003v.049h-.695z"/><path fill="#496A9E" d="M29.297 31.903l-.691.003c-.221-.003-.442-.009-.663-.009-8.262 0-16.524 0-24.786-.003-.079 0-.159.008-.237.012-.452-.017-.9-.057-1.336-.192-.728-.225-1.15-.728-1.338-1.449-.168-.642-.164-1.3-.164-1.954a17716.4 17716.4 0 0 1 0-24.55C.076 3.238.1 2.716.156 2.196.296.987.984.29 2.196.158 3.337.036 4.48.076 5.622.075c7.475-.002 14.95-.002 22.425 0 .61 0 1.222 0 1.829.09 1.192.173 1.807.791 1.967 1.987.031.236.042.478.062.714-.003.079-.011.16-.011.238v25.692c0 .079.008.16.012.237.001.434-.052.867-.16 1.288-.202.76-.69 1.234-1.452 1.43-.327.079-.66.13-.996.152z"/><path fill="#000" d="M11.647 13.092c-1.243.032-2.169-.412-2.967-1.137C7.41 10.8 6.733 9.33 6.48 7.649c-.193-1.28-.083-2.527.482-3.704.547-1.14 1.388-1.94 2.683-2.146 1.019-.16 1.93.146 2.748.733 1.386.992 2.163 2.387 2.55 4.011.354 1.493.302 2.966-.357 4.382a5.009 5.009 0 0 1-1.052 1.456c-.559.547-1.259.725-1.887.711z"/><path fill="#010202" d="M30.783 9.38c-.023.125-.11.18-.178.247a7543.51 7543.51 0 0 1-12.45 12.317 19359.17 19359.17 0 0 0-7.898 7.813c-.07.069-.142.134-.208.206-.153.165-.28.146-.404-.038-.231-.347-.472-.684-.71-1.03L1.664 18.24c-.083-.12-.266-.25-.127-.416.144-.175.296 0 .425.062a2038.18 2038.18 0 0 1 7.751 3.66c.175.083.3.075.46-.021 6.71-4.053 13.423-8.103 20.137-12.15.08-.055.166-.101.256-.138.138-.047.186.05.218.142z"/><path fill="#FEFEFE" d="M14.477 8.786c-.175-.708-.467-1.354-.933-1.911-.598-.716-1.34-1.182-2.296-1.214-1.063-.035-2.057.677-2.48 1.758-.512 1.305-.36 2.565.27 3.789.054.1.11.197.12.342-.125-.121-.251-.24-.372-.364C7.096 9.452 6.525 6.413 7.5 4.268c.432-.947 1.108-1.643 2.18-1.838.87-.16 1.65.103 2.347.61 1.352.987 2.052 2.373 2.378 3.978.12.581.144 1.178.072 1.768z"/><path fill="#FBFBFB" d="M12.139 7.85a.419.419 0 0 1-.397.414c-.213 0-.412-.212-.406-.436.006-.212.204-.416.401-.417.214-.001.407.21.402.44z"/><path fill="#7FC338" d="M29.332 10.414L23.4 16.282a78202.46 78202.46 0 0 0-13.342 13.192c-.134.133-.198.174-.327-.015a6204.22 6204.22 0 0 0-7.476-10.934c-.024-.036-.045-.073-.077-.124.11-.028.178.039.249.072 2.416 1.138 4.83 2.28 7.244 3.424.212.102.372.098.58-.029 6.322-3.82 12.646-7.635 18.973-11.445.027-.016.057-.03.086-.044l.023.035z"/></g></svg>