<svg xmlns="http://www.w3.org/2000/svg" viewBox="0 0 32 32"><g fill="none" fill-rule="evenodd"><path fill="#000" d="M10.387.037C16.788 2.363 23.2 4.7 29.6 7.026c2.025.737 2.725 2.25 2 4.25-.138.387-.275.787-.438 1.175-.437 1.063-1.362 1.275-2.15.413-.912-1.013-2.075-1.35-3.362-1.338-1.813.025-3.287 1.25-3.688 2.975-.387 1.663.463 3.488 2.038 4.313.813.437 1.663.712 2.625.575 1.2-.163 1.788.587 1.387 1.724-1.05 2.938-2.1 5.876-3.2 8.8-.65 1.726-2.212 2.438-3.95 1.813C14.6 29.462 8.35 27.175 2.1 24.9 1.012 24.5.387 23.712.013 22.675v-1.25C.6 19.1 1.537 16.9 2.35 14.662c1.4-3.937 2.837-7.85 4.262-11.75l.3-.825C7.325.912 8.112.175 9.387.038h1z"/><path fill="#010101" d="M26 13.125a2.283 2.283 0 0 1 2.275 2.375 2.321 2.321 0 0 1-2.35 2.262 2.337 2.337 0 0 1-2.288-2.325A2.318 2.318 0 0 1 26 13.126z"/><path fill="#6671CC" d="M21.025 15.275c-.05 2.838 2.75 5.325 5.55 4.95.663-.088.825.087.6.712-1.05 2.9-2.088 5.8-3.163 8.688-.462 1.25-1.587 1.762-2.825 1.3-6.262-2.275-12.525-4.55-18.774-6.838-1.363-.5-1.85-1.6-1.35-2.962C3.3 14.937 5.55 8.762 7.8 2.575c.563-1.55 1.6-2.013 3.163-1.45a5456.836 5456.836 0 0 1 18.424 6.713c1.476.537 1.963 1.612 1.438 3.074-.137.388-.275.788-.438 1.175-.212.513-.425.563-.812.15-1.275-1.374-2.887-1.762-4.662-1.487-2.238.338-3.85 2.25-3.888 4.525z"/><path fill="#FCFCFC" d="M25.95 16.613c-.613-.013-1.15-.55-1.162-1.163-.013-.637.537-1.188 1.187-1.175.65.012 1.175.563 1.15 1.213-.012.612-.563 1.125-1.175 1.125z"/><path fill="#818EFE" d="M5.388 10.412c.2-1.025.675-1.95 1.012-2.937.55-1.612 1.162-3.2 1.75-4.8.487-1.3 1.325-1.712 2.65-1.237C15.05 2.974 19.3 4.55 23.55 6.1c1.887.688 3.787 1.363 5.675 2.063 1.325.487 1.712 1.312 1.275 2.637-.125.387-.175.975-.45 1.125-.4.225-.575-.425-.925-.625-1.563-.9-3.163-1.338-4.938-.725-.137.05-.287.063-.425.088-.425-.113-.862-.038-1.3-.038-5.337-.012-10.675 0-16.012-.012-.362 0-.75.075-1.063-.2z"/><path fill="#8490FE" d="M5.388 10.412c5.9 0 11.8 0 17.712.013.237 0 .563-.163.675.237-.887.313-1.45 1.038-2.125 1.625-.438-.075-.875-.037-1.3-.037-4.825 0-9.663 0-14.488-.012-.362 0-.762.087-1.075-.2a6.864 6.864 0 0 1 .6-1.626z"/><path fill="#8995FE" d="M20.887 13.662c-.1.663-.312 1.313-.25 2-.562-.512-1.25-.425-1.925-.425H4.25c-.2 0-.413.025-.612-.075.15-.562.325-1.112.612-1.625.25-.387.65-.325 1.013-.325 2.812-.012 5.624 0 8.425 0 2.1 0 4.2-.012 6.3.013.362 0 .812-.112.9.438z"/><path fill="#8692FE" d="M20.887 13.662c-.137-.287-.4-.25-.65-.25H4.914c-.238 0-.45.013-.663.125.05-.537.338-1 .513-1.5 5.4 0 10.8 0 16.2.013.237 0 .562-.175.674.237-.4.375-.437.95-.75 1.375z"/><path fill="#8D97FE" d="M3.638 15.162c.224-.137.474-.125.724-.125 5.088 0 10.163.013 15.25-.012.513 0 .9.075 1.026.637.037.213.074.413.124.626-.187.1-.4.087-.612.087-5.262-.012-10.537 0-15.8-.012-.362 0-.762.087-1.075-.2.063-.363.2-.688.363-1z"/><path fill="#CACAFE" d="M24.137 28.163c-.187.524-.325 1.075-.562 1.587-.325.725-1.188 1.175-1.9.938-2.55-.838-5.063-1.75-7.55-2.75.05-.525.463-.45.8-.463 1.938-.013 3.875-.013 5.813 0 .912 0 1.837-.013 2.75.012.575 0 .675.126.65.676z"/><path fill="#B2B6FE" d="M6.5 25.175c-.912-.338-1.838-.663-2.75-1-.013-.188.125-.238.275-.288.2-.062.412-.062.612-.062h20.026c.212 0 .412 0 .612.063.188.062.35.162.238.412-.026.262-.063.525-.263.712-.387.088-.775.088-1.175.088-5.65 0-11.313-.013-16.962 0-.2.012-.413.012-.613.075z"/><path fill="#ADB2FE" d="M25.525 24.3c-.087-.413-.425-.262-.662-.262-3.825-.013-7.663 0-11.488 0H4.45c-.237 0-.5-.1-.7.137-.55-.175-1.125-.3-1.612-.625-.175-.15-.163-.275.037-.375.213-.1.45-.075.675-.075h22.1c.3 0 .688-.125.825.325.013.313-.012.625-.25.875z"/><path fill="#9CA4FE" d="M1.65 20.538c.088-.213.163-.413.25-.625.225-.188.5-.2.763-.2 6.575-.013 13.162 0 19.737 0 .213 0 .413.024.613.075.65.25 1.312.5 1.962.762-.438.35-.975.325-1.488.325-3.037.012-6.074 0-9.112 0H2.7c-.363-.025-.788.075-1.05-.337z"/><path fill="#99A1FE" d="M2.013 19.663c.012-.375.212-.688.362-1.013.263-.212.587-.2.9-.2H21.15c.213 0 .413.012.613.088.2.3.612.387.737.75-.275.387-.7.325-1.087.325-2.288.012-4.576 0-6.863 0H3.687c-.562-.013-1.112.062-1.674.05z"/><path fill="#959EFE" d="M21.762 18.538c-.187.112-.387.125-.6.125-6.262 0-12.524-.013-18.787-.013 0-.275.15-.512.263-.737.237-.213.537-.2.825-.2H20.55c.3 0 .587.024.837.2.125.2.25.412.375.625z"/><path fill="#A0A7FE" d="M1.65 20.538c.225.137.475.125.725.125h21.387c.413 0 .825-.076 1.226-.113.4.238.837.063 1.25.113.2.024.437-.226.575-.038.15.212-.025.45-.175.65-.45.075-.913.075-1.363.075-7.587 0-15.187 0-22.775-.013-.362 0-.775.113-1-.312l.15-.487z"/><path fill="#B6BAFE" d="M6.5 25.175c.125-.3.388-.275.638-.275h17.65c.162 0 .337-.037.462.113-.212.174-.012.487-.225.662-.262.063-.537.037-.813.037-5.137.013-10.274-.012-15.412.013-.188 0-.375-.025-.55.063-.6-.1-1.175-.375-1.75-.613z"/><path fill="#939DFE" d="M21.387 17.913H2.637c.05-.226.088-.45.238-.638.25-.2.538-.2.837-.2H20.2c.288 0 .588-.012.825.2.125.213.238.425.363.638z"/><path fill="#8F99FE" d="M3.263 16.163H19.9c.288 0 .588-.05.85.125.05.212.087.412.137.625-.187.112-.4.087-.612.087-5.55-.012-11.112-.012-16.662 0-.213 0-.413.025-.613-.087.1-.25.188-.5.263-.75z"/><path fill="#9AA2FE" d="M2.013 19.663c.212-.313.537-.25.85-.25h18.662c.338 0 .663-.026.975-.125l.525.487c-.262.175-.563.138-.85.138H1.9c0-.1.013-.2.113-.25z"/><path fill="#A1A9FE" d="M1.5 21.025c.25.15.513.138.788.138 7.862 0 15.724 0 23.587.012.25 0 .55-.2.775.1-.037.05-.087.1-.125.138-.2.325-.525.3-.837.3H2.613c-.438 0-.938.112-1.213-.425-.012-.1 0-.2.1-.263z"/><path fill="#A6ADFE" d="M26.275 22.038c-.037.2.075.437-.137.6-.263-.088-.538-.05-.8-.05H7.624c-1.787 0-3.575-.013-5.362 0-.288 0-.588.05-.85-.126-.113-.15-.1-.312 0-.462.237-.175.512-.137.787-.137h23.262c.276 0 .576-.063.813.175z"/><path fill="#AAB0FE" d="M25.775 23.425c-.175-.213-.425-.137-.637-.137-7.5 0-15 0-22.513.012-.15 0-.55-.25-.487.25-.288-.075-.475-.275-.613-.525.188-.35.525-.3.825-.3h22.5c.25 0 .5-.013.75.025.313.063.438.225.3.538-.05.05-.087.1-.125.137z"/><path fill="#919BFE" d="M3.013 16.913c.224-.138.474-.125.724-.125h16.425c.25 0 .5-.013.726.125.137.087.124.237.124.375H2.863c.038-.138.013-.288.15-.375z"/><path fill="#BCBFFE" d="M24.887 26.025c-.224.2 0 .563-.25.763a2.055 2.055 0 0 0-.9-.2c-4.224.012-8.45-.013-12.674.012-.15 0-.288.012-.426.063-.362-.026-.687-.213-1-.363-.2-.113-.375-.225-.075-.425.213-.15.476-.15.726-.15h13.887c.25 0 .6-.1.712.3z"/><path fill="#BABDFE" d="M24.887 26.025c-.15-.175-.337-.112-.524-.112h-14.2c-.188 0-.363-.013-.55.075-.3.137.037.212.024.312-.487-.075-.937-.275-1.375-.5-.062-.175-.05-.275.175-.262.4.012.788 0 1.188 0h14.637c.25 0 .55-.113.763.137-.012.137.013.275-.137.35z"/><path fill="#C3C4FE" d="M13.012 27.538a3.551 3.551 0 0 1-1-.363c-.225-.1-.362-.225-.075-.425.213-.15.476-.15.726-.15 3.637 0 7.274-.013 10.912.012.363 0 .813-.062.963.45-.013.125.012.275-.138.35-2.8.15-5.6.026-8.387.076-1.013 0-2.013-.075-3 .05z"/><path fill="#A4ABFE" d="M26.275 22.038H1.388c-.075-.125-.075-.238.05-.326.325-.125.662-.05.987-.05 7.875 0 15.75-.012 23.613 0a.49.49 0 0 1 .337.126c.025.1.012.2-.1.25z"/><path fill="#A7ADFE" d="M1.387 22.413c8.026 0 16.038 0 24.063.012.238 0 .563-.175.688.225a.655.655 0 0 1-.126.138H2.476c-.325 0-.675-.063-.975.137a.292.292 0 0 1-.125-.25c-.05-.1-.063-.175.012-.262z"/><path fill="#AAAFFE" d="M1.5 22.925c.125-.288.387-.262.638-.262h23.275c.212 0 .412.024.6.125.012.187.037.375-.126.512.026-.475-.325-.387-.6-.387H2.364c-.288 0-.588-.05-.85.125 0-.038-.013-.076-.013-.113z"/><path fill="#C0C2FE" d="M24.525 27.05c-.25-.225-.55-.275-.862-.275H12.475c-.55 0-.588.05-.475.388a5.328 5.328 0 0 1-1.375-.5c-.012-.088-.1-.213.063-.25.137-.026.287-.013.437-.013h12.837c.276 0 .675-.162.675.375-.037.1-.075.188-.112.275z"/><path fill="#C5C6FE" d="M13.012 27.538c-.125-.363.163-.25.313-.25.95-.013 1.913 0 2.863 0 2.462 0 4.937-.013 7.4.024.25 0 .587-.35.8.1-.238.2 0 .563-.25.763.024-.375-.176-.512-.538-.5-2.975.012-5.95 0-8.913 0-.237 0-.462.025-.574.275-.375-.1-.763-.2-1.1-.412z"/><path fill="#A3AAFE" d="M1.387 22.413v.262c-.224-.463-.175-.925.013-1.387.325.212.688.25 1.075.25 7.75-.013 15.5 0 23.25 0 .262 0 .537.037.787-.125-.037.125-.075.25-.125.375h-.25c-.187-.113-.412-.063-.612-.063H2c-.2 0-.413-.05-.613.063v.625z"/><path fill="#A4ABFE" d="M1.387 21.788c.188-.2.425-.125.65-.125h23.45c.213 0 .463-.088.65.125H1.387z"/></g></svg>