<svg xmlns="http://www.w3.org/2000/svg" viewBox="0 0 32 32"><path fill="#F26822" d="M30.696 12.818H20.482a1.273 1.273 0 0 1-1.279-1.278V1.32c0-.71-.57-1.275-1.278-1.275h-3.828c-.71 0-1.28.565-1.28 1.275v10.22c0 .71-.572 1.278-1.28 1.278H7.709a1.273 1.273 0 0 1-1.276-1.279V1.321C6.433.61 5.86.045 5.15.045H1.323A1.271 1.271 0 0 0 .045 1.321v29.377a1.273 1.273 0 0 0 1.278 1.279h29.373a1.276 1.276 0 0 0 1.281-1.279V14.092c0-.709-.573-1.274-1.281-1.274zM25.589 23.67a1.913 1.913 0 0 1-1.916 1.918H21.12a1.913 1.913 0 0 1-1.916-1.918v-2.555c0-1.063.855-1.918 1.915-1.918h2.555c1.06 0 1.916.856 1.916 1.918v2.555z"/></svg>