<svg xmlns="http://www.w3.org/2000/svg" viewBox="0 0 32 32"><g fill="none" fill-rule="evenodd"><path fill="#DD4B39" d="M0 0h32v32H0z"/><path fill="#FFF" fill-rule="nonzero" d="M18.982 29.185h-3.619l-1.783-3.391h-2.377v3.391h-3.2V16.931h5.507c3.252 0 5.105 1.573 5.105 4.3 0 1.853-.77 3.217-2.185 3.95l2.552 4.004zm-7.78-9.702v3.758h2.326c1.293 0 2.045-.664 2.045-1.905 0-1.206-.752-1.853-2.045-1.853h-2.325zm9.458-2.552h9.667v2.552H23.86v2.29h5.84v2.535l-5.84.017v2.308h6.643v2.552H20.66V16.931z"/><path fill="#FFF" fill-rule="nonzero" d="M18.982 29.185h-3.619l-1.783-3.391h-2.377v3.391h-3.2V16.931h5.507c3.252 0 5.105 1.573 5.105 4.3 0 1.853-.77 3.217-2.185 3.95l2.552 4.004zm-7.78-9.702v3.758h2.326c1.293 0 2.045-.664 2.045-1.905 0-1.206-.752-1.853-2.045-1.853h-2.325zm9.458-2.552h9.667v2.552H23.86v2.29h5.84v2.535l-5.84.017v2.308h6.643v2.552H20.66V16.931z"/></g></svg>