<svg xmlns="http://www.w3.org/2000/svg" viewBox="0 0 32 27"><g fill="none" fill-rule="evenodd"><path fill="#A41E11" d="M30.647 20.812c-1.699.875-10.5 4.451-12.373 5.416-1.874.966-2.914.956-4.394.257-1.48-.7-10.846-4.437-12.533-5.234C.504 20.853.06 20.516.06 20.199v-3.18s12.193-2.623 14.161-3.321c1.969-.698 2.652-.723 4.327-.117 1.675.607 11.69 2.393 13.346 2.992v3.134c0 .315-.382.66-1.247 1.105z"/><path fill="#D82C20" d="M30.647 17.631c-1.699.875-10.5 4.451-12.373 5.416-1.874.966-2.914.957-4.394.258-1.48-.7-10.846-4.439-12.533-5.235-1.687-.797-1.722-1.345-.065-1.986 1.657-.642 10.97-4.253 12.94-4.95 1.968-.699 2.65-.724 4.326-.117 1.675.606 10.423 4.047 12.078 4.646 1.656.6 1.72 1.093.02 1.969h.001z"/><path fill="#A41E11" d="M30.647 15.627c-1.699.875-10.5 4.45-12.373 5.416-1.874.965-2.914.956-4.394.257-1.48-.7-10.846-4.438-12.533-5.235C.504 15.667.06 15.331.06 15.014v-3.18S12.253 9.21 14.221 8.511c1.969-.697 2.652-.723 4.327-.116 1.675.606 11.69 2.392 13.346 2.991v3.135c0 .315-.382.66-1.247 1.105z"/><path fill="#D82C20" d="M30.647 12.446c-1.699.875-10.5 4.45-12.373 5.417-1.874.965-2.914.955-4.394.256-1.48-.7-10.846-4.438-12.533-5.235-1.687-.796-1.722-1.345-.065-1.986 1.657-.642 10.971-4.253 12.94-4.95 1.968-.698 2.65-.724 4.326-.117 1.675.606 10.423 4.047 12.078 4.646 1.656.6 1.72 1.094.021 1.969z"/><path fill="#A41E11" d="M30.647 10.249c-1.699.875-10.5 4.451-12.373 5.417-1.874.965-2.914.955-4.394.256S3.034 11.484 1.347 10.688C.504 10.289.06 9.953.06 9.636v-3.18s12.193-2.623 14.161-3.32c1.969-.699 2.651-.724 4.326-.117 1.676.606 11.692 2.391 13.347 2.99v3.136c0 .314-.382.658-1.247 1.104z"/><path fill="#D82C20" d="M30.647 7.068c-1.699.875-10.5 4.451-12.373 5.417-1.874.965-2.914.955-4.394.256S3.034 8.303 1.347 7.507C-.34 6.71-.375 6.16 1.282 5.52c1.657-.642 10.971-4.252 12.94-4.95 1.968-.698 2.65-.723 4.326-.117C20.223 1.06 28.97 4.5 30.626 5.1c1.656.599 1.72 1.093.021 1.968z"/><path fill="#FFF" fill-rule="nonzero" d="M20.149 4.006l-2.759.283-.617 1.468-.998-1.639-3.185-.283 2.377-.847-.713-1.3 2.225.86 2.098-.678-.567 1.344m-1.402 7.915L11.46 9.02l7.377-1.12"/><ellipse cx="9.471" cy="6.332" fill="#FFF" rx="3.943" ry="1.51"/><path fill="#7A0C00" d="M23.409 4.407l4.366 1.705-4.363 1.703"/><path fill="#AD2115" d="M18.579 6.295l4.83-1.888.003 3.408-.473.183"/></g></svg>