<svg xmlns="http://www.w3.org/2000/svg" viewBox="0 0 25 32"><g fill="none" fill-rule="evenodd"><path fill="#B57EE5" d="M2.492 30.854L1.07 1.684H.005l1.066 29.17z"/><path fill="#F1618C" d="M3.084 30.854L1.663 1.684 24.877.025v31.897z"/><path fill="#FFF" d="M18.955 4.293L19.25.321l2.783-.237v4.209l-1.4-1.267zm-3.715 8.215l4.577-.114c.114-4.44-2.189-6.63-6.197-6.63-4.007 0-6.253 2.276-6.253 5.691 0 5.948 7.675 6.062 7.675 9.306 0 .91-.427 1.451-1.365 1.451-1.222 0-1.705-.797-1.648-3.016H7.225c-.37 5.492 2.842 6.744 6.51 6.744 3.552 0 6.338-1.65 6.338-5.236 0-6.375-7.789-6.204-7.789-9.363 0-1.28.91-1.451 1.45-1.451.569 0 1.592.228 1.507 2.618z"/></g></svg>