<svg xmlns="http://www.w3.org/2000/svg" viewBox="0 0 32 32"><g fill="none" fill-rule="evenodd"><path fill="#000" d="M31.944 16c0 8.793-7.151 15.944-15.944 15.944C7.207 31.944.056 24.793.056 16 .056 7.207 7.207.056 16 .056 24.793.056 31.944 7.207 31.944 16z"/><path fill="#FFF" d="M22.957 5.955c-1.614.055-3.034.946-4.09 2.17-1.17 1.364-1.949 2.95-2.505 4.592-1.002-.807-1.781-1.893-3.367-2.338-1.252-.362-2.532-.222-3.729.696-.556.417-.946 1.057-1.14 1.67-.474 1.558.5 2.949.945 3.45l.974 1.057c.195.195.696.751.445 1.503-.25.835-1.252 1.391-2.31 1.057-.472-.139-1.112-.473-.973-.974.056-.195.195-.361.278-.528.056-.14.112-.25.112-.334.194-.613-.056-1.42-.724-1.614-.612-.195-1.252-.028-1.503.751-.278.89.167 2.532 2.477 3.256 2.7.834 5.009-.64 5.315-2.56.195-1.197-.334-2.115-1.336-3.256l-.807-.89c-.5-.501-.668-1.336-.139-1.976.417-.557 1.03-.78 2.031-.5 1.475.389 2.115 1.418 3.2 2.225-.445 1.475-.751 2.95-1.001 4.285l-.167 1.002c-.78 4.09-1.364 6.317-2.922 7.597-.306.222-.751.556-1.42.584-.361 0-.472-.223-.472-.334 0-.25.194-.362.334-.473.194-.111.528-.306.5-.89-.027-.696-.612-1.308-1.446-1.28-.64.027-1.587.612-1.559 1.697.028 1.14 1.085 1.976 2.672 1.92.834-.028 2.727-.362 4.59-2.588 2.171-2.532 2.783-5.454 3.229-7.596l.5-2.81c.279.027.585.055.919.055 2.699.056 4.062-1.336 4.062-2.365 0-.613-.417-1.225-1.001-1.197-.418 0-.946.278-1.058.863-.111.556.863 1.085.084 1.586-.557.362-1.53.612-2.894.39l.25-1.392c.501-2.616 1.141-5.843 3.534-5.927.167 0 .807 0 .835.418 0 .139-.028.166-.195.5-.167.25-.222.473-.222.724.027.668.528 1.113 1.28 1.085.974-.028 1.28-1.002 1.252-1.475.028-1.168-1.197-1.892-2.838-1.836z"/></g></svg>